<svg width="25" height="25" viewBox="0 0 25 25" fill="none" xmlns="http://www.w3.org/2000/svg">
<path opacity="0.4" d="M12 21.5C17.2467 21.5 21.5 17.2467 21.5 12C21.5 6.75329 17.2467 2.5 12 2.5C6.75329 2.5 2.5 6.75329 2.5 12C2.5 17.2467 6.75329 21.5 12 21.5Z" fill="#0E48FB"/>
<path d="M21.8001 22.5C21.6201 22.5 21.4401 22.43 21.3101 22.3L19.4501 20.44C19.1801 20.17 19.1801 19.73 19.4501 19.45C19.7201 19.18 20.1601 19.18 20.4401 19.45L22.3001 21.31C22.5701 21.58 22.5701 22.02 22.3001 22.3C22.1601 22.43 21.9801 22.5 21.8001 22.5Z" fill="#0E48FB"/>
<path d="M12 2.5C17.25 2.5 21.5 6.75 21.5 12C21.5 17.25 17.25 21.5 12 21.5C6.75 21.5 2.5 17.25 2.5 12C2.5 8.3 4.61 5.1 7.7 3.53" stroke="#0E48FB" stroke-width="1.5" stroke-linecap="round" stroke-linejoin="round"/>
<path d="M22.5 22.5L20.5 20.5" stroke="#0E48FB" stroke-width="1.5" stroke-linecap="round" stroke-linejoin="round"/>
</svg>
