<svg width="25" height="25" viewBox="0 0 25 25" fill="none" xmlns="http://www.w3.org/2000/svg">
<path opacity="0.4" d="M4.48999 15.1599L2.97 13.64C2.35 13.02 2.35 12 2.97 11.38L4.48999 9.85996C4.74999 9.59996 4.96 9.08995 4.96 8.72995V6.57999C4.96 5.69999 5.68 4.97995 6.56 4.97995H8.71C9.07 4.97995 9.58 4.76998 9.84 4.50998L11.36 2.98996C11.98 2.36996 13 2.36996 13.62 2.98996L15.14 4.50998C15.4 4.76998 15.91 4.97995 16.27 4.97995H18.42C19.3 4.97995 20.02 5.69999 20.02 6.57999V8.72995C20.02 9.08995 20.23 9.59996 20.49 9.85996L22.01 11.38C22.63 12 22.63 13.02 22.01 13.64L20.49 15.1599C20.23 15.4199 20.02 15.93 20.02 16.29V18.44C20.02 19.32 19.3 20.04 18.42 20.04H16.27C15.91 20.04 15.4 20.25 15.14 20.51L13.62 22.03C13 22.65 11.98 22.65 11.36 22.03L9.84 20.51C9.58 20.25 9.07 20.04 8.71 20.04H6.56C5.68 20.04 4.96 19.32 4.96 18.44V16.29C4.96 15.92 4.74999 15.4099 4.48999 15.1599Z" fill="#0E48FB"/>
<path d="M15.5 16.5C14.94 16.5 14.49 16.05 14.49 15.5C14.49 14.95 14.94 14.5 15.49 14.5C16.04 14.5 16.49 14.95 16.49 15.5C16.49 16.05 16.05 16.5 15.5 16.5Z" fill="#0E48FB"/>
<path d="M9.51001 10.5C8.95001 10.5 8.5 10.05 8.5 9.5C8.5 8.95 8.95 8.5 9.5 8.5C10.05 8.5 10.5 8.95 10.5 9.5C10.5 10.05 10.06 10.5 9.51001 10.5Z" fill="#0E48FB"/>
<path d="M9.49994 16.25C9.30994 16.25 9.11994 16.18 8.96994 16.03C8.67994 15.74 8.67994 15.2599 8.96994 14.9699L14.9699 8.96994C15.2599 8.67994 15.7399 8.67994 16.0299 8.96994C16.3199 9.25994 16.3199 9.74 16.0299 10.03L10.0299 16.03C9.87994 16.18 9.68994 16.25 9.49994 16.25Z" fill="#0E48FB"/>
<path d="M15.16 20.51L13.64 22.03C13.02 22.65 12 22.65 11.38 22.03L9.86002 20.51C9.60002 20.25 9.09005 20.04 8.73005 20.04H6.58002C5.70002 20.04 4.98005 19.3199 4.98005 18.4399V16.29C4.98005 15.93 4.77004 15.42 4.51004 15.16L2.99002 13.64C2.37002 13.02 2.37002 12 2.99002 11.38L4.51004 9.85999C4.77004 9.59999 4.98005 9.08998 4.98005 8.72998V6.57996C4.98005 5.69996 5.70002 4.97998 6.58002 4.97998" stroke="#0E48FB" stroke-width="1.5" stroke-linecap="round" stroke-linejoin="round"/>
<path d="M9.83997 4.49002L11.36 2.97C11.98 2.35 13 2.35 13.62 2.97L15.14 4.49002C15.4 4.75002 15.91 4.96 16.27 4.96H18.42C19.3 4.96 20.02 5.68009 20.02 6.56009V8.71C20.02 9.07 20.23 9.58 20.49 9.84L22.01 11.36C22.63 11.98 22.63 13 22.01 13.62L20.49 15.14C20.23 15.4 20.02 15.9101 20.02 16.2701V18.4201C20.02 19.3001 19.3 20.0201 18.42 20.0201" stroke="#0E48FB" stroke-width="1.5" stroke-linecap="round" stroke-linejoin="round"/>
<path d="M9.5 15.5L15.5 9.5" stroke="#0E48FB" stroke-width="1.5" stroke-linecap="round" stroke-linejoin="round"/>
<path d="M14.9945 15H15.0035" stroke="#0E48FB" stroke-width="2" stroke-linecap="round" stroke-linejoin="round"/>
<path d="M9.99451 10H10.0035" stroke="#0E48FB" stroke-width="2" stroke-linecap="round" stroke-linejoin="round"/>
</svg>
