<svg width="25" height="25" viewBox="0 0 25 25" fill="none" xmlns="http://www.w3.org/2000/svg">
<path d="M22.5 11C22.5 9.79 21.69 8.24 20.7 7.55L14.52 3.22C13.12 2.24 10.87 2.29 9.52 3.34L4.13 7.54C3.23 8.24 2.5 9.73 2.5 10.86V18.27C2.5 20.59 4.39 22.49 6.71 22.49H18.29C20.61 22.49 22.5 20.59 22.5 18.28V15.18" stroke="#0E48FB" stroke-width="1.5" stroke-linecap="round" stroke-linejoin="round"/>
<path d="M12.5 18.49V15.49" stroke="#0E48FB" stroke-width="1.5" stroke-linecap="round" stroke-linejoin="round"/>
<path opacity="0.4" d="M20.54 7.32L14.78 3.29C13.21 2.19 10.8 2.25 9.28999 3.42L4.27999 7.33C3.27999 8.11 2.48999 9.71 2.48999 10.97V17.87C2.48999 20.42 4.55999 22.5 7.10999 22.5H17.89C20.44 22.5 22.51 20.43 22.51 17.88V11.1C22.51 9.75 21.64 8.09 20.54 7.32Z" fill="#0E48FB"/>
<path d="M12.5 19.25C12.09 19.25 11.75 18.91 11.75 18.5V15.5C11.75 15.09 12.09 14.75 12.5 14.75C12.91 14.75 13.25 15.09 13.25 15.5V18.5C13.25 18.91 12.91 19.25 12.5 19.25Z" fill="#0E48FB"/>
</svg>
