<svg width="25" height="25" viewBox="0 0 25 25" fill="none" xmlns="http://www.w3.org/2000/svg">
<path d="M19 7.16C18.94 7.15 18.87 7.15 18.81 7.16C17.43 7.11 16.33 5.98 16.33 4.58C16.33 3.15 17.48 2 18.91 2C20.34 2 21.49 3.16 21.49 4.58C21.48 5.98 20.38 7.11 19 7.16Z" stroke="#0E48FB" stroke-width="1.5" stroke-linecap="round" stroke-linejoin="round"/>
<path d="M17.9699 14.44C19.3399 14.67 20.8499 14.43 21.9099 13.72C23.3199 12.78 23.3199 11.24 21.9099 10.3C20.8399 9.59001 19.3099 9.35 17.9399 9.59" stroke="#0E48FB" stroke-width="1.5" stroke-linecap="round" stroke-linejoin="round"/>
<path d="M6.96998 7.16C7.02998 7.15 7.09998 7.15 7.15998 7.16C8.53998 7.11 9.63998 5.98 9.63998 4.58C9.63998 3.15 8.48998 2 7.05998 2C5.62998 2 4.47998 3.16 4.47998 4.58C4.48998 5.98 5.58998 7.11 6.96998 7.16Z" stroke="#0E48FB" stroke-width="1.5" stroke-linecap="round" stroke-linejoin="round"/>
<path d="M7.99994 14.44C6.62994 14.67 5.11994 14.43 4.05994 13.72C2.64994 12.78 2.64994 11.24 4.05994 10.3C5.12994 9.59001 6.65994 9.35 8.02994 9.59" stroke="#0E48FB" stroke-width="1.5" stroke-linecap="round" stroke-linejoin="round"/>
<path d="M13 14.63C12.94 14.62 12.87 14.62 12.81 14.63C11.43 14.58 10.33 13.45 10.33 12.05C10.33 10.62 11.48 9.47 12.91 9.47C14.34 9.47 15.49 10.63 15.49 12.05C15.48 13.45 14.38 14.59 13 14.63Z" stroke="#0E48FB" stroke-width="1.5" stroke-linecap="round" stroke-linejoin="round"/>
<path d="M15.91 17.78C14.32 16.72 11.69 16.72 10.09 17.78C8.67997 18.72 8.67997 20.26 10.09 21.2C11.69 22.27 14.31 22.27 15.91 21.2" stroke="#0E48FB" stroke-width="1.5" stroke-linecap="round" stroke-linejoin="round"/>
<path opacity="0.4" d="M18.53 7.77C18.46 7.76 18.39 7.76 18.32 7.77C16.77 7.72 15.54 6.45 15.54 4.89C15.54 3.3 16.83 2 18.43 2C20.02 2 21.32 3.29 21.32 4.89C21.31 6.45 20.08 7.72 18.53 7.77Z" fill="#0E48FB"/>
<path opacity="0.4" d="M21.79 14.7C20.67 15.45 19.1 15.73 17.65 15.54C18.03 14.72 18.23 13.81 18.24 12.85C18.24 11.85 18.02 10.9 17.6 10.07C19.08 9.87001 20.65 10.15 21.78 10.9C23.36 11.94 23.36 13.65 21.79 14.7Z" fill="#0E48FB"/>
<path opacity="0.4" d="M7.44002 7.77C7.51002 7.76 7.58002 7.76 7.65002 7.77C9.20002 7.72 10.43 6.45 10.43 4.89C10.43 3.3 9.14002 2 7.54002 2C5.95002 2 4.65002 3.29 4.65002 4.89C4.66002 6.45 5.89002 7.72 7.44002 7.77Z" fill="#0E48FB"/>
<path opacity="0.4" d="M7.54999 12.85C7.54999 13.82 7.75999 14.74 8.13999 15.57C6.72999 15.72 5.26 15.42 4.18 14.71C2.6 13.66 2.6 11.95 4.18 10.9C5.25 10.18 6.75999 9.88998 8.18 10.05C7.77 10.89 7.54999 11.84 7.54999 12.85Z" fill="#0E48FB"/>
<path d="M13.12 15.87C13.04 15.86 12.9501 15.86 12.8601 15.87C11.0201 15.81 9.55005 14.3 9.55005 12.44C9.55005 10.54 11.0801 9 12.9901 9C14.8901 9 16.43 10.54 16.43 12.44C16.43 14.3 14.97 15.81 13.12 15.87Z" fill="#0E48FB"/>
<path d="M9.87005 17.94C8.36005 18.95 8.36005 20.61 9.87005 21.61C11.59 22.76 14.4101 22.76 16.1301 21.61C17.6401 20.6 17.6401 18.94 16.1301 17.94C14.4201 16.79 11.6 16.79 9.87005 17.94Z" fill="#0E48FB"/>
</svg>
