<svg width="25" height="24" viewBox="0 0 25 24" fill="none" xmlns="http://www.w3.org/2000/svg">
<path d="M8.5 2V5" stroke="#0E48FB" stroke-width="1.5" stroke-miterlimit="10" stroke-linecap="round" stroke-linejoin="round"/>
<path d="M16.5 2V5" stroke="#0E48FB" stroke-width="1.5" stroke-miterlimit="10" stroke-linecap="round" stroke-linejoin="round"/>
<path d="M4 9.08997H21" stroke="#0E48FB" stroke-width="1.5" stroke-miterlimit="10" stroke-linecap="round" stroke-linejoin="round"/>
<path d="M3.5 13.01V8.5C3.5 5.5 5 3.5 8.5 3.5H16.5C20 3.5 21.5 5.5 21.5 8.5V17C21.5 20 20 22 16.5 22H8.5C5 22 3.5 20 3.5 17" stroke="#0E48FB" stroke-width="1.5" stroke-miterlimit="10" stroke-linecap="round" stroke-linejoin="round"/>
<path d="M12.4955 13.7H12.5045" stroke="#0E48FB" stroke-width="2" stroke-linecap="round" stroke-linejoin="round"/>
<path d="M8.79431 13.7H8.80329" stroke="#0E48FB" stroke-width="2" stroke-linecap="round" stroke-linejoin="round"/>
<path d="M8.79431 16.7H8.80329" stroke="#0E48FB" stroke-width="2" stroke-linecap="round" stroke-linejoin="round"/>
<path d="M17.25 3.56V2C17.25 1.59 16.91 1.25 16.5 1.25C16.09 1.25 15.75 1.59 15.75 2V3.5H9.25001V2C9.25001 1.59 8.91001 1.25 8.50001 1.25C8.09001 1.25 7.75001 1.59 7.75001 2V3.56C5.05001 3.81 3.74002 5.42 3.54002 7.81C3.52002 8.1 3.76002 8.34 4.04002 8.34H20.96C21.25 8.34 21.49 8.09 21.46 7.81C21.26 5.42 19.95 3.81 17.25 3.56Z" fill="#0E48FB"/>
<path opacity="0.4" d="M20.5 9.83997C21.05 9.83997 21.5 10.29 21.5 10.84V17C21.5 20 20 22 16.5 22H8.5C5 22 3.5 20 3.5 17V10.84C3.5 10.29 3.95 9.83997 4.5 9.83997H20.5Z" fill="#0E48FB"/>
<path d="M9 15C8.87 15 8.74 14.97 8.62 14.92C8.5 14.87 8.39001 14.8 8.29001 14.71C8.20001 14.61 8.12999 14.5 8.07999 14.38C8.02999 14.26 8 14.13 8 14C8 13.87 8.02999 13.74 8.07999 13.62C8.12999 13.5 8.20001 13.39 8.29001 13.29C8.39001 13.2 8.5 13.13 8.62 13.08C8.86 12.98 9.14 12.98 9.38 13.08C9.5 13.13 9.60999 13.2 9.70999 13.29C9.79999 13.39 9.87001 13.5 9.92001 13.62C9.97001 13.74 10 13.87 10 14C10 14.13 9.97001 14.26 9.92001 14.38C9.87001 14.5 9.79999 14.61 9.70999 14.71C9.60999 14.8 9.5 14.87 9.38 14.92C9.26 14.97 9.13 15 9 15Z" fill="#0E48FB"/>
<path d="M12.5 15C12.37 15 12.24 14.97 12.12 14.92C12 14.87 11.89 14.8 11.79 14.71C11.61 14.52 11.5 14.26 11.5 14C11.5 13.74 11.61 13.48 11.79 13.29C11.89 13.2 12 13.13 12.12 13.08C12.36 12.97 12.64 12.97 12.88 13.08C13 13.13 13.11 13.2 13.21 13.29C13.39 13.48 13.5 13.74 13.5 14C13.5 14.26 13.39 14.52 13.21 14.71C13.11 14.8 13 14.87 12.88 14.92C12.76 14.97 12.63 15 12.5 15Z" fill="#0E48FB"/>
<path d="M9 18.5C8.87 18.5 8.74 18.47 8.62 18.42C8.5 18.37 8.39001 18.3 8.29001 18.21C8.11001 18.02 8 17.76 8 17.5C8 17.24 8.11001 16.98 8.29001 16.79C8.39001 16.7 8.5 16.63 8.62 16.58C8.86 16.48 9.14 16.48 9.38 16.58C9.5 16.63 9.60999 16.7 9.70999 16.79C9.88999 16.98 10 17.24 10 17.5C10 17.76 9.88999 18.02 9.70999 18.21C9.60999 18.3 9.5 18.37 9.38 18.42C9.26 18.47 9.13 18.5 9 18.5Z" fill="#0E48FB"/>
</svg>
