<svg width="25" height="25" viewBox="0 0 25 25" fill="none" xmlns="http://www.w3.org/2000/svg">
<path opacity="0.4" d="M2.5 13.47V7.49C2.5 4.73 4.74 2.5 7.5 2.5H17.5C20.26 2.5 22.5 4.73 22.5 7.49V14.47C22.5 17.22 20.26 19.45 17.5 19.45H16C15.69 19.45 15.39 19.6 15.2 19.85L13.7 21.84C13.04 22.72 11.96 22.72 11.3 21.84L9.8 19.85C9.64 19.63 9.28 19.45 9 19.45H7.5C4.74 19.45 2.5 17.22 2.5 14.47V13.47Z" fill="#0E48FB"/>
<path d="M12.5 12.5C11.94 12.5 11.5 12.05 11.5 11.5C11.5 10.95 11.95 10.5 12.5 10.5C13.05 10.5 13.5 10.95 13.5 11.5C13.5 12.05 13.06 12.5 12.5 12.5Z" fill="#0E48FB"/>
<path d="M16.5 12.5C15.94 12.5 15.5 12.05 15.5 11.5C15.5 10.95 15.95 10.5 16.5 10.5C17.05 10.5 17.5 10.95 17.5 11.5C17.5 12.05 17.06 12.5 16.5 12.5Z" fill="#0E48FB"/>
<path d="M8.5 12.5C7.94 12.5 7.5 12.05 7.5 11.5C7.5 10.95 7.95 10.5 8.5 10.5C9.05 10.5 9.5 10.95 9.5 11.5C9.5 12.05 9.06 12.5 8.5 12.5Z" fill="#0E48FB"/>
<path d="M2.5 8.5C2.5 4.5 4.5 2.5 8.5 2.5H16.5C20.5 2.5 22.5 4.5 22.5 8.5V13.5C22.5 17.5 20.5 19.5 16.5 19.5H16C15.69 19.5 15.39 19.65 15.2 19.9L13.7 21.9C13.04 22.78 11.96 22.78 11.3 21.9L9.8 19.9C9.64 19.68 9.27 19.5 9 19.5H8.5C4.5 19.5 2.5 18.5 2.5 13.5V12.5" stroke="#0E48FB" stroke-width="1.5" stroke-miterlimit="10" stroke-linecap="round" stroke-linejoin="round"/>
<path d="M16.4965 11.5H16.5054" stroke="#0E48FB" stroke-width="2" stroke-linecap="round" stroke-linejoin="round"/>
<path d="M12.4955 11.5H12.5045" stroke="#0E48FB" stroke-width="2" stroke-linecap="round" stroke-linejoin="round"/>
<path d="M8.49451 11.5H8.50349" stroke="#0E48FB" stroke-width="2" stroke-linecap="round" stroke-linejoin="round"/>
</svg>
