<svg width="24" height="25" viewBox="0 0 24 25" fill="none" xmlns="http://www.w3.org/2000/svg">
<path opacity="0.4" d="M17.53 8.27C17.46 8.26 17.39 8.26 17.32 8.27C15.77 8.22 14.54 6.95 14.54 5.39C14.54 3.8 15.83 2.5 17.43 2.5C19.02 2.5 20.32 3.79 20.32 5.39C20.31 6.95 19.08 8.22 17.53 8.27Z" fill="#3D4A52"/>
<path opacity="0.4" d="M20.7901 15.2004C19.6701 15.9504 18.1001 16.2304 16.6501 16.0404C17.0301 15.2204 17.2301 14.3104 17.2401 13.3504C17.2401 12.3504 17.0201 11.4004 16.6001 10.5704C18.0801 10.3704 19.6501 10.6504 20.7801 11.4004C22.3601 12.4404 22.3601 14.1504 20.7901 15.2004Z" fill="#3D4A52"/>
<path opacity="0.4" d="M6.4399 8.27C6.5099 8.26 6.5799 8.26 6.6499 8.27C8.1999 8.22 9.4299 6.95 9.4299 5.39C9.4299 3.8 8.1399 2.5 6.5399 2.5C4.9499 2.5 3.6499 3.79 3.6499 5.39C3.6599 6.95 4.8899 8.22 6.4399 8.27Z" fill="#3D4A52"/>
<path opacity="0.4" d="M6.55012 13.3496C6.55012 14.3196 6.76012 15.2396 7.14012 16.0696C5.73012 16.2196 4.26012 15.9196 3.18012 15.2096C1.60012 14.1596 1.60012 12.4496 3.18012 11.3996C4.25012 10.6796 5.76012 10.3896 7.18012 10.5496C6.77012 11.3896 6.55012 12.3396 6.55012 13.3496Z" fill="#3D4A52"/>
<path d="M12.1198 16.37C12.0398 16.36 11.9498 16.36 11.8598 16.37C10.0198 16.31 8.5498 14.8 8.5498 12.94C8.5498 11.04 10.0798 9.5 11.9898 9.5C13.8898 9.5 15.4298 11.04 15.4298 12.94C15.4298 14.8 13.9698 16.31 12.1198 16.37Z" fill="#3D4A52"/>
<path d="M8.8698 18.4396C7.3598 19.4496 7.3598 21.1096 8.8698 22.1096C10.5898 23.2596 13.4098 23.2596 15.1298 22.1096C16.6398 21.0996 16.6398 19.4396 15.1298 18.4396C13.4198 17.2896 10.5998 17.2896 8.8698 18.4396Z" fill="#3D4A52"/>
</svg>
