<svg width="18" height="18" viewBox="0 0 18 18" fill="none" xmlns="http://www.w3.org/2000/svg">
<path d="M1.5 9.7425V11.25C1.5 15 3 16.5 6.75 16.5H11.25C15 16.5 16.5 15 16.5 11.25V6.75C16.5 3 15 1.5 11.25 1.5H6.75C3 1.5 1.5 3 1.5 6.75" stroke="#7E93A0" stroke-width="1.5" stroke-linecap="round" stroke-linejoin="round"/>
<path d="M8.25 6C8.25 6.825 7.575 7.5 6.75 7.5C5.925 7.5 5.25 6.825 5.25 6C5.25 5.175 5.925 4.5 6.75 4.5" stroke="#7E93A0" stroke-width="1.5" stroke-linecap="round" stroke-linejoin="round"/>
<path d="M2.00293 14.2124L5.70043 11.7299C6.29293 11.3324 7.14793 11.3774 7.68043 11.8349L7.92793 12.0524C8.51293 12.5549 9.45793 12.5549 10.0429 12.0524L13.1629 9.37492C13.7479 8.87242 14.6929 8.87242 15.2779 9.37492L16.5004 10.4249" stroke="#7E93A0" stroke-width="1.5" stroke-linecap="round" stroke-linejoin="round"/>
</svg>
