<svg width="25" height="25" viewBox="0 0 25 25" fill="none" xmlns="http://www.w3.org/2000/svg">
<path d="M15.1604 20.5105L13.6404 22.0305C13.0204 22.6505 12.0004 22.6505 11.3804 22.0305L9.86039 20.5105C9.60039 20.2505 9.09041 20.0405 8.73041 20.0405H6.58039C5.70039 20.0405 4.98041 19.3204 4.98041 18.4404V16.2905C4.98041 15.9305 4.77041 15.4205 4.51041 15.1605L2.99039 13.6405C2.37039 13.0205 2.37039 12.0005 2.99039 11.3805L4.51041 9.86047C4.77041 9.60047 4.98041 9.09047 4.98041 8.73047V6.58044C4.98041 5.70044 5.70039 4.98047 6.58039 4.98047" stroke="#7E93A0" stroke-width="1.5" stroke-linecap="round" stroke-linejoin="round"/>
<path d="M9.83984 4.4899L11.3598 2.96988C11.9798 2.34988 12.9998 2.34988 13.6198 2.96988L15.1399 4.4899C15.3999 4.7499 15.9098 4.95987 16.2698 4.95987H18.4199C19.2999 4.95987 20.0198 5.67997 20.0198 6.55997V8.70987C20.0198 9.06987 20.2298 9.57988 20.4898 9.83988L22.0099 11.3599C22.6299 11.9799 22.6299 12.9999 22.0099 13.6199L20.4898 15.1399C20.2298 15.3999 20.0198 15.9099 20.0198 16.2699V18.42C20.0198 19.3 19.2999 20.0199 18.4199 20.0199" stroke="#7E93A0" stroke-width="1.5" stroke-linecap="round" stroke-linejoin="round"/>
<path d="M9.5 15.5L15.5 9.5" stroke="#7E93A0" stroke-width="1.5" stroke-linecap="round" stroke-linejoin="round"/>
<path d="M14.9945 15H15.0035" stroke="#7E93A0" stroke-width="2" stroke-linecap="round" stroke-linejoin="round"/>
<path d="M9.99451 10H10.0035" stroke="#7E93A0" stroke-width="2" stroke-linecap="round" stroke-linejoin="round"/>
</svg>
