<svg width="25" height="25" viewBox="0 0 25 25" fill="none" xmlns="http://www.w3.org/2000/svg">
<path d="M2.5 8.5C2.5 4.5 4.5 2.5 8.5 2.5H16.5C20.5 2.5 22.5 4.5 22.5 8.5V13.5C22.5 17.5 20.5 19.5 16.5 19.5H16C15.69 19.5 15.39 19.65 15.2 19.9L13.7 21.9C13.04 22.78 11.96 22.78 11.3 21.9L9.8 19.9C9.64 19.68 9.27 19.5 9 19.5H8.5C4.5 19.5 2.5 18.5 2.5 13.5V12.5" stroke="#7E93A0" stroke-width="1.5" stroke-miterlimit="10" stroke-linecap="round" stroke-linejoin="round"/>
<path d="M16.4965 11.5H16.5054" stroke="#7E93A0" stroke-width="2" stroke-linecap="round" stroke-linejoin="round"/>
<path d="M12.4955 11.5H12.5045" stroke="#7E93A0" stroke-width="2" stroke-linecap="round" stroke-linejoin="round"/>
<path d="M8.49451 11.5H8.50349" stroke="#7E93A0" stroke-width="2" stroke-linecap="round" stroke-linejoin="round"/>
</svg>
