<svg width="28" height="28" viewBox="0 0 28 28" fill="none" xmlns="http://www.w3.org/2000/svg">
<path d="M20.6667 0.666992H7.33341C3.65341 0.666992 0.666748 3.64033 0.666748 7.30699V15.2803V16.6137C0.666748 20.2803 3.65341 23.2537 7.33341 23.2537H9.33341C9.69341 23.2537 10.1734 23.4937 10.4001 23.787L12.4001 26.4403C13.2801 27.6137 14.7201 27.6137 15.6001 26.4403L17.6001 23.787C17.8534 23.4537 18.2534 23.2537 18.6667 23.2537H20.6667C24.3467 23.2537 27.3334 20.2803 27.3334 16.6137V7.30699C27.3334 3.64033 24.3467 0.666992 20.6667 0.666992ZM15.3334 16.3337H7.33341C6.78675 16.3337 6.33341 15.8803 6.33341 15.3337C6.33341 14.787 6.78675 14.3337 7.33341 14.3337H15.3334C15.8801 14.3337 16.3334 14.787 16.3334 15.3337C16.3334 15.8803 15.8801 16.3337 15.3334 16.3337ZM20.6667 9.66699H7.33341C6.78675 9.66699 6.33341 9.21366 6.33341 8.66699C6.33341 8.12033 6.78675 7.66699 7.33341 7.66699H20.6667C21.2134 7.66699 21.6667 8.12033 21.6667 8.66699C21.6667 9.21366 21.2134 9.66699 20.6667 9.66699Z" fill="white"/>
</svg>
