<svg width="20" height="20" viewBox="0 0 20 20" fill="none" xmlns="http://www.w3.org/2000/svg">
<path d="M6.6665 8.35033V9.58366C6.6665 11.4253 8.15817 12.917 9.99984 12.917C11.8415 12.917 13.3332 11.4253 13.3332 9.58366V5.00033C13.3332 3.15866 11.8415 1.66699 9.99984 1.66699C8.15817 1.66699 6.6665 3.15866 6.6665 5.00033" stroke="#7E93A0" stroke-width="1.5" stroke-linecap="round" stroke-linejoin="round"/>
<path d="M3.62451 8.04199V9.45866C3.62451 12.9753 6.48285 15.8337 9.99951 15.8337C13.5162 15.8337 16.3745 12.9753 16.3745 9.45866V8.04199" stroke="#7E93A0" stroke-width="1.5" stroke-linecap="round" stroke-linejoin="round"/>
<path d="M8.84131 5.35859C9.59131 5.08359 10.408 5.08359 11.158 5.35859" stroke="#7E93A0" stroke-width="1.5" stroke-linecap="round" stroke-linejoin="round"/>
<path d="M9.33301 7.12461C9.77467 7.00794 10.233 7.00794 10.6747 7.12461" stroke="#7E93A0" stroke-width="1.5" stroke-linecap="round" stroke-linejoin="round"/>
<path d="M9.99951 15.833V18.333" stroke="#7E93A0" stroke-width="1.5" stroke-linecap="round" stroke-linejoin="round"/>
</svg>
