<svg width="28" height="28" viewBox="0 0 28 28" fill="none" xmlns="http://www.w3.org/2000/svg">
<path d="M14 25.5854C8.12001 25.5854 3.32501 20.8021 3.32501 14.9104V12.7171C3.32501 12.2621 3.69835 11.9004 4.14168 11.9004C4.58501 11.9004 4.95835 12.2737 4.95835 12.7171V14.9104C4.95835 19.8921 9.00668 23.9404 13.9883 23.9404C18.97 23.9404 23.0183 19.8921 23.0183 14.9104V12.7171C23.0183 12.2621 23.3917 11.9004 23.835 11.9004C24.2783 11.9004 24.6517 12.2737 24.6517 12.7171V14.9104C24.675 20.8021 19.88 25.5854 14 25.5854Z" fill="white"/>
<path d="M14 2.33301C10.08 2.33301 6.88336 5.52968 6.88336 9.44968V14.9213C6.88336 18.8413 10.08 22.038 14 22.038C17.92 22.038 21.1167 18.8413 21.1167 14.9213V9.44968C21.1167 5.52968 17.92 2.33301 14 2.33301ZM16.5434 12.3547C16.4617 12.6697 16.17 12.8797 15.855 12.8797C15.7967 12.8797 15.7267 12.868 15.6684 12.8563C14.4784 12.5297 13.2184 12.5297 12.0284 12.8563C11.6434 12.9613 11.2584 12.7397 11.1534 12.3547C11.0484 11.9813 11.27 11.5847 11.655 11.4797C13.09 11.083 14.6067 11.083 16.0417 11.4797C16.4267 11.5847 16.6484 11.9697 16.5434 12.3547ZM17.535 9.12301C17.43 9.41468 17.1617 9.58968 16.87 9.58968C16.7884 9.58968 16.7067 9.57801 16.625 9.54301C14.84 8.88968 12.88 8.88968 11.095 9.54301C10.7217 9.68301 10.3134 9.49634 10.1734 9.12301C10.045 8.76134 10.2317 8.35301 10.605 8.21301C12.705 7.45467 15.015 7.45467 17.1034 8.21301C17.4767 8.35301 17.6634 8.76134 17.535 9.12301Z" fill="white"/>
</svg>
