<svg width="28" height="28" viewBox="0 0 28 28" fill="none" xmlns="http://www.w3.org/2000/svg">
<path d="M20.5567 6.67301L8.17832 19.0513C7.32665 17.8963 6.85999 16.4847 6.85999 14.9563V9.46134C6.85999 7.31467 7.81665 5.38967 9.33332 4.08301V8.91301C9.33332 9.36801 9.70665 9.74134 10.15 9.74134C10.605 9.74134 10.9783 9.36801 10.9783 8.91301V2.99801C11.515 2.72967 12.0867 2.54301 12.6817 2.43801V6.70801C12.6817 7.17467 13.055 7.53634 13.51 7.53634C13.965 7.53634 14.3383 7.17467 14.3383 6.70801V2.33301C17.1267 2.46134 19.53 4.21134 20.5567 6.67301Z" fill="#E9F3FF"/>
<path d="M21.14 10.3604V14.957C21.14 18.8887 17.9317 22.097 14 22.097C13.79 22.097 13.58 22.0854 13.37 22.062C13.2767 22.062 13.1834 22.0504 13.1017 22.0387C12.95 22.0154 12.7984 21.992 12.6584 21.9687C12.6 21.9687 12.5534 21.9454 12.4834 21.9337C12.32 21.8987 12.1567 21.852 12.005 21.8054C11.7484 21.7354 11.5034 21.642 11.27 21.5487C11.1184 21.4904 10.9784 21.432 10.8384 21.3504C10.8034 21.3387 10.78 21.3154 10.745 21.3037C10.6284 21.2454 10.5117 21.187 10.395 21.1054L21.14 10.3604Z" fill="#E9F3FF"/>
<path d="M25.375 12.833V15.1663C25.375 21.443 20.2766 26.5413 14 26.5413C11.5266 26.5413 9.15829 25.748 7.20996 24.2897L8.46996 23.0297C10.08 24.173 11.9933 24.7913 14 24.7913C19.3083 24.7913 23.625 20.4747 23.625 15.1663V12.833C23.625 12.3547 24.0216 11.958 24.5 11.958C24.9783 11.958 25.375 12.3547 25.375 12.833Z" fill="#E9F3FF"/>
<path d="M25.3983 2.60137C25.0483 2.25137 24.4766 2.25137 24.1266 2.60137L2.60161 24.138C2.25161 24.488 2.25161 25.0597 2.60161 25.4097C2.77661 25.573 2.99828 25.6664 3.23161 25.6664C3.46494 25.6664 3.68661 25.573 3.86161 25.398L25.3983 3.86137C25.7599 3.51137 25.7599 2.95137 25.3983 2.60137Z" fill="#E9F3FF"/>
</svg>
