<svg width="28" height="28" viewBox="0 0 28 28" fill="none" xmlns="http://www.w3.org/2000/svg">
<g clip-path="url(#clip0_550_6104)">
<path d="M2.92907 17.7783L0.0119329 14.8612C-0.421171 14.4281 -0.44567 13.7339 -0.0442458 13.2714C0.291102 12.8851 0.57274 12.578 0.800675 12.3501C8.0905 5.06026 19.9095 5.06026 27.1993 12.3501C27.4273 12.578 27.7089 12.8851 28.0442 13.2714C28.4456 13.7339 28.4211 14.4281 27.9881 14.8611L25.0709 17.7784C24.8591 17.9901 24.5214 18.0071 24.2894 17.8177C24.0812 17.6476 23.9116 17.5135 23.7806 17.4154C22.4483 16.4168 20.9982 15.6484 19.4845 15.1101C19.2416 15.0237 19.0955 14.7756 19.1379 14.5212L19.6465 11.4688C16.0305 10.0207 11.9695 10.0207 8.35341 11.4688L8.86134 14.5158C8.90415 14.7732 8.75632 15.0243 8.51057 15.1119C6.99735 15.6505 5.54773 16.4192 4.216 17.418C4.08582 17.5155 3.91737 17.6488 3.71055 17.8177C3.47857 18.0071 3.14083 17.9901 2.92907 17.7783Z" fill="white"/>
</g>
<defs>
<clipPath id="clip0_550_6104">
<rect width="28" height="28" fill="white"/>
</clipPath>
</defs>
</svg>
