<svg width="28" height="28" viewBox="0 0 28 28" fill="none" xmlns="http://www.w3.org/2000/svg">
<path d="M21 19.5417C20.8133 19.5417 20.6383 19.4833 20.475 19.3667C20.09 19.075 20.0083 18.5267 20.3 18.1417C22.1317 15.7033 22.1317 12.2967 20.3 9.85833C20.0083 9.47333 20.09 8.92499 20.475 8.63333C20.86 8.34166 21.4083 8.42333 21.7 8.80833C23.9867 11.865 23.9867 16.135 21.7 19.1917C21.525 19.425 21.2683 19.5417 21 19.5417Z" fill="white"/>
<path d="M23.135 22.458C22.9484 22.458 22.7734 22.3997 22.61 22.283C22.225 21.9913 22.1434 21.443 22.435 21.058C25.55 16.9047 25.55 11.0947 22.435 6.94133C22.1434 6.55633 22.225 6.008 22.61 5.71633C22.995 5.42467 23.5434 5.50633 23.835 5.89133C27.4167 10.663 27.4167 17.3363 23.835 22.108C23.6717 22.3413 23.4034 22.458 23.135 22.458Z" fill="white"/>
<path d="M16.3566 4.41C15.05 3.68667 13.3816 3.87334 11.6783 4.935L8.27165 7.07C8.03831 7.21 7.76998 7.29167 7.50165 7.29167H6.41665H5.83331C3.00998 7.29167 1.45831 8.84334 1.45831 11.6667V16.3333C1.45831 19.1567 3.00998 20.7083 5.83331 20.7083H6.41665H7.50165C7.76998 20.7083 8.03831 20.79 8.27165 20.93L11.6783 23.065C12.705 23.7067 13.7083 24.0217 14.6416 24.0217C15.2483 24.0217 15.8316 23.8817 16.3566 23.59C17.6516 22.8667 18.375 21.3617 18.375 19.355V8.645C18.375 6.63834 17.6516 5.13334 16.3566 4.41Z" fill="white"/>
</svg>
