<svg width="28" height="28" viewBox="0 0 28 28" fill="none" xmlns="http://www.w3.org/2000/svg">
<path d="M24.675 7.19866C24.1967 6.94199 23.1934 6.67366 21.8284 7.63033L20.1134 8.84366C19.985 5.21533 18.41 3.79199 14.5834 3.79199H7.58335C3.59335 3.79199 2.04169 5.34366 2.04169 9.33366V18.667C2.04169 21.3503 3.50002 24.2087 7.58335 24.2087H14.5834C18.41 24.2087 19.985 22.7853 20.1134 19.157L21.8284 20.3703C22.5517 20.8837 23.1817 21.047 23.6834 21.047C24.115 21.047 24.4534 20.9187 24.675 20.802C25.1534 20.557 25.9584 19.892 25.9584 18.2237V9.77699C25.9584 8.10866 25.1534 7.44366 24.675 7.19866ZM12.8334 13.277C11.6317 13.277 10.64 12.297 10.64 11.0837C10.64 9.87033 11.6317 8.89033 12.8334 8.89033C14.035 8.89033 15.0267 9.87033 15.0267 11.0837C15.0267 12.297 14.035 13.277 12.8334 13.277Z" fill="white"/>
</svg>
